<svg xmlns="http://www.w3.org/2000/svg" viewBox="0 0 320 200" width="320" height="200"><rect class="art-s-light" fill="none" stroke-width="2" x="6" y="6" width="308" height="188" rx="12"/><circle class="art-f-slate" cx="112" cy="100" r="64"/><g class="art-s-light" fill="none" stroke-width="2"><circle cx="112" cy="100" r="64"/><ellipse cx="112" cy="100" rx="28" ry="64"/><path d="M48 100H176M58 68H166M58 132H166M112 36V164"/></g><path class="art-s-gold" fill="none" stroke-width="4" stroke-linecap="round" d="M60 152C120 176 220 160 280 92"/><circle class="art-f-gold" cx="280" cy="92" r="7"/><rect class="art-f-teal" x="196" y="112" width="22" height="58" rx="2"/><rect class="art-f-light" x="222" y="84" width="26" height="86" rx="2"/><rect class="art-f-teal" x="252" y="124" width="20" height="46" rx="2"/><rect class="art-f-slate" x="276" y="104" width="22" height="66" rx="2"/><path class="art-s-line" fill="none" stroke-width="2" d="M188 170H304"/></svg>
